<svg width="20" height="20" viewBox="0 0 20 20" fill="none" xmlns="http://www.w3.org/2000/svg">
<path d="M10.0003 18.3334C8.84755 18.3334 7.76421 18.1146 6.75033 17.6771C5.73644 17.2396 4.85449 16.6459 4.10449 15.8959C3.35449 15.1459 2.76074 14.2639 2.32324 13.25C1.88574 12.2361 1.66699 11.1528 1.66699 10C1.66699 8.84724 1.88574 7.76391 2.32324 6.75002C2.76074 5.73613 3.35449 4.85419 4.10449 4.10419C4.85449 3.35419 5.73644 2.76044 6.75033 2.32294C7.76421 1.88544 8.84755 1.66669 10.0003 1.66669C10.9031 1.66669 11.7573 1.79863 12.5628 2.06252C13.3684 2.32641 14.1114 2.69446 14.792 3.16669L13.5837 4.39585C13.0559 4.06252 12.4934 3.8021 11.8962 3.6146C11.2989 3.4271 10.667 3.33335 10.0003 3.33335C8.1531 3.33335 6.58019 3.98266 5.28158 5.28127C3.98296 6.57988 3.33366 8.1528 3.33366 10C3.33366 11.8472 3.98296 13.4202 5.28158 14.7188C6.58019 16.0174 8.1531 16.6667 10.0003 16.6667C11.8475 16.6667 13.4205 16.0174 14.7191 14.7188C16.0177 13.4202 16.667 11.8472 16.667 10C16.667 9.75002 16.6531 9.50002 16.6253 9.25002C16.5975 9.00002 16.5559 8.75697 16.5003 8.52085L17.8545 7.16669C18.0073 7.61113 18.1253 8.06947 18.2087 8.54169C18.292 9.01391 18.3337 9.50002 18.3337 10C18.3337 11.1528 18.1149 12.2361 17.6774 13.25C17.2399 14.2639 16.6462 15.1459 15.8962 15.8959C15.1462 16.6459 14.2642 17.2396 13.2503 17.6771C12.2364 18.1146 11.1531 18.3334 10.0003 18.3334ZM8.83366 13.8334L5.29199 10.2917L6.45866 9.12502L8.83366 11.5L17.167 3.14585L18.3337 4.31252L8.83366 13.8334Z" fill="#9FC7E0"/>
</svg>
