<svg width="3" height="4" viewBox="0 0 3 4" fill="none" xmlns="http://www.w3.org/2000/svg">
<path d="M0.272328 1.842C0.272328 1.674 0.302661 1.51767 0.363328 1.373C0.428661 1.22367 0.512661 1.09533 0.615328 0.988C0.722661 0.880667 0.846328 0.796666 0.986328 0.736C1.13099 0.670666 1.28499 0.638 1.44833 0.638C1.61633 0.638 1.77266 0.670666 1.91733 0.736C2.06666 0.796666 2.19499 0.880667 2.30233 0.988C2.40966 1.09533 2.49366 1.22367 2.55433 1.373C2.61966 1.51767 2.65233 1.674 2.65233 1.842C2.65233 2.00533 2.61966 2.15933 2.55433 2.304C2.49366 2.444 2.40966 2.56767 2.30233 2.675C2.19499 2.78233 2.06666 2.86867 1.91733 2.934C1.77266 2.99467 1.61633 3.025 1.44833 3.025C1.28499 3.025 1.13099 2.99467 0.986328 2.934C0.846328 2.86867 0.722661 2.78233 0.615328 2.675C0.512661 2.56767 0.428661 2.444 0.363328 2.304C0.302661 2.15933 0.272328 2.00533 0.272328 1.842Z" fill="#9FC7E0"/>
</svg>
